HIERARCHY
ROOT Hips
{
 OFFSET 0.000000 0.000000 0.000000
 CHANNELS 6 Xposition Yposition Zposition Yrotation Xrotation Zrotation
 JOINT Chest
 {
  OFFSET 0.000000 12.953391 -0.028419
  CHANNELS 3 Yrotation Xrotation Zrotation
  JOINT Chest2
  {
   OFFSET 0.000000 10.280254 0.051622
   CHANNELS 3 Yrotation Xrotation Zrotation
   JOINT Chest3
   {
    OFFSET 0.000000 9.287180 0.000000
    CHANNELS 3 Yrotation Xrotation Zrotation
    JOINT Chest4
    {
     OFFSET 0.000000 9.287180 0.000000
     CHANNELS 3 Yrotation Xrotation Zrotation
     JOINT Neck
     {
      OFFSET 0.000000 13.296264 0.000000
      CHANNELS 3 Yrotation Xrotation Zrotation
      JOINT Head
      {
       OFFSET 0.000000 8.959264 0.099003
       CHANNELS 3 Yrotation Xrotation Zrotation
       End Site
       {
        OFFSET 0.000000 17.121337 0.039303
       }
      }
     }
     JOINT RightCollar
     {
      OFFSET -3.193511 7.451388 0.000000
      CHANNELS 3 Yrotation Xrotation Zrotation
      JOINT RightShoulder
      {
       OFFSET -15.792092 0.000000 0.000000
       CHANNELS 3 Yrotation Xrotation Zrotation
       JOINT RightElbow
       {
        OFFSET -31.151839 0.000000 0.000000
        CHANNELS 3 Yrotation Xrotation Zrotation
        JOINT RightWrist
        {
         OFFSET -25.536298 0.000000 0.002321
         CHANNELS 3 Yrotation Xrotation Zrotation
         End Site
         {
          OFFSET -19.133213 0.000000 0.000000
         }
        }
       }
      }
     }
     JOINT LeftCollar
     {
      OFFSET 3.193511 7.451388 0.000000
      CHANNELS 3 Yrotation Xrotation Zrotation
      JOINT LeftShoulder
      {
       OFFSET 15.792092 0.000000 0.000000
       CHANNELS 3 Yrotation Xrotation Zrotation
       JOINT LeftElbow
       {
        OFFSET 31.151839 0.000000 0.000000
        CHANNELS 3 Yrotation Xrotation Zrotation
        JOINT LeftWrist
        {
         OFFSET 25.536298 0.000000 0.002321
         CHANNELS 3 Yrotation Xrotation Zrotation
         End Site
         {
          OFFSET 19.133213 0.000000 0.000000
         }
        }
       }
      }
     }
    }
   }
  }
 }
 JOINT RightHip
 {
  OFFSET -10.745749 0.139252 0.014209
  CHANNELS 3 Yrotation Xrotation Zrotation
  JOINT RightKnee
  {
   OFFSET 0.000000 -43.743899 -0.006071
   CHANNELS 3 Yrotation Xrotation Zrotation
   JOINT RightAnkle
   {
    OFFSET 0.000000 -43.214199 0.089931
    CHANNELS 3 Yrotation Xrotation Zrotation
    JOINT RightToe
    {
     OFFSET 0.000000 -9.699830 19.151588
     CHANNELS 3 Yrotation Xrotation Zrotation
     End Site
     {
      OFFSET 0.000000 -1.292898 4.893873
     }
    }
   }
  }
 }
 JOINT LeftHip
 {
  OFFSET 10.745749 0.139252 0.014209
  CHANNELS 3 Yrotation Xrotation Zrotation
  JOINT LeftKnee
  {
   OFFSET 0.000000 -43.743899 -0.006071
   CHANNELS 3 Yrotation Xrotation Zrotation
   JOINT LeftAnkle
   {
    OFFSET 0.000000 -43.214199 0.089931
    CHANNELS 3 Yrotation Xrotation Zrotation
    JOINT LeftToe
    {
     OFFSET 0.000000 -9.699830 19.151588
     CHANNELS 3 Yrotation Xrotation Zrotation
     End Site
     {
      OFFSET 0.000000 -1.292898 4.893873
     }
    }
   }
  }
 }
}
MOTION
Frames: 14
Frame Time: 0.016667
-23.006428 99.163752 77.372025 60.390914 -10.090506 5.362516 0.521712 11.342473 5.449183 0.096860 5.046927 2.396791 0.096860 5.046927 2.396791 0.052760 3.785644 1.795628 -9.325417 24.723101 2.278407 -17.253230 10.507068 6.290070 5.946413 1.399395 5.166634 11.222692 -21.910492 60.252646 1.447966 29.429301 -6.285069 15.122400 27.007539 -38.766359 -1.832401 -2.187937 -12.205061 -1.362801 6.064956 -76.303336 -24.377211 26.763923 -3.755383 1.273944 15.558087 9.510844 -12.052342 12.123397 -3.593705 -2.081896 1.144733 -0.518968 -13.961903 -5.230812 -2.591254 0.000000 0.000000 0.000000 19.319905 3.566763 9.703298 -1.797997 24.058207 1.422536 -4.727739 -1.550904 -6.542124 0.000000 0.000000 0.000000
-23.028041 99.212807 77.106848 60.716440 -9.749128 5.489165 0.466805 11.255494 5.386238 0.075187 5.007572 2.370575 0.075196 5.007571 2.370571 0.036899 3.756037 1.776173 -9.311859 24.688120 2.297385 -17.236031 10.443865 6.325306 5.908246 1.468880 5.182738 11.206008 -22.005183 60.080250 1.529479 29.407836 -6.340708 15.054584 27.310395 -38.712319 -1.867162 -2.148929 -12.077675 -1.377903 5.931012 -76.388813 -24.800014 26.738002 -3.765994 1.321856 15.611280 9.496879 -11.927540 11.722985 -3.792747 -2.678846 1.072750 -0.365808 -13.757407 -5.058441 -2.685743 0.000000 0.000000 0.000000 19.918427 3.471283 9.397812 -2.042085 23.380186 1.318972 -4.351993 -1.662721 -6.362505 0.000000 0.000000 -0.000000
-23.049654 99.261862 76.841670 61.042403 -9.408465 5.617650 0.411865 11.168627 5.323232 0.053440 4.968290 2.344317 0.053442 4.968291 2.344316 0.020957 3.726489 1.756697 -9.298356 24.653080 2.316221 -17.219010 10.380552 6.360362 5.870194 1.538346 5.199134 11.188768 -22.099744 59.908063 1.610717 29.386136 -6.396621 14.987257 27.613489 -38.658796 -1.901328 -2.110163 -11.950097 -1.392997 5.797295 -76.474616 -25.223209 26.711777 -3.777574 1.369635 15.664557 9.482848 -11.802803 11.324282 -3.995611 -3.276312 1.003149 -0.212815 -13.553055 -4.886029 -2.779753 0.000000 -0.000000 0.000000 20.516112 3.383754 9.087857 -2.288888 22.703479 1.209368 -3.978536 -1.780014 -6.182320 0.000000 -0.000000 0.000000
-23.079767 99.311308 76.566299 61.435939 -9.078672 5.731504 0.355863 11.088082 5.263970 0.031038 4.931816 2.319691 0.031038 4.931816 2.319691 0.004504 3.699043 1.738441 -9.293588 24.613116 2.345255 -17.220363 10.310753 6.416168 5.822457 1.580760 5.209410 11.029293 -22.172503 59.822691 1.740401 29.455336 -6.579863 14.833188 28.126943 -38.650485 -1.952729 -2.077173 -11.818383 -1.451822 5.662231 -76.543970 -25.644801 26.684439 -3.787891 1.412885 15.687567 9.488285 -11.750128 10.929044 -4.203416 -3.820116 0.924651 -0.067805 -13.399007 -4.706320 -2.860851 0.000000 0.000000 0.000000 20.985125 3.354980 8.796788 -2.481294 21.959646 1.106406 -3.701327 -1.965176 -6.062081 0.000000 0.000000 0.000000
-23.121869 99.364133 76.275830 61.920316 -8.761108 5.829375 0.297455 11.016071 5.209327 0.007350 4.899123 2.297116 0.007352 4.899121 2.297115 -0.012942 3.674429 1.721725 -9.300732 24.568027 2.385456 -17.246153 10.234905 6.495210 5.765029 1.586963 5.212856 10.688419 -22.228636 59.854277 1.870208 29.752485 -7.033334 14.488514 29.064437 -38.578317 -2.029804 -2.053141 -11.680356 -1.574288 5.527382 -76.588895 -26.070755 26.652764 -3.801421 1.449055 15.672357 9.526162 -11.812659 10.530123 -4.421222 -4.274425 0.831467 0.061352 -13.313187 -4.512572 -2.926072 0.000000 -0.000000 0.000000 21.256112 3.415346 8.524226 -2.607270 21.098173 1.013598 -3.525254 -2.220179 -6.054041 0.000000 0.000000 0.000000
-23.172472 99.417349 75.975167 62.471803 -8.454475 5.913701 0.237919 10.950519 5.158290 -0.017023 4.869308 2.276128 -0.017022 4.869308 2.276128 -0.030933 3.651978 1.706202 -9.316581 24.517921 2.435860 -17.290460 10.152705 6.595074 5.697760 1.566253 5.210152 10.205324 -22.262312 59.975306 2.044063 30.139112 -7.617166 14.061247 30.215304 -38.558855 -2.123918 -2.035040 -11.537851 -1.740477 5.390989 -76.616645 -26.495004 26.620075 -3.813447 1.480818 15.627040 9.583776 -11.946875 10.134201 -4.641885 -4.675261 0.728425 0.182367 -13.277441 -4.311570 -2.978690 0.000000 0.000000 0.000000 21.397105 3.530045 8.275360 -2.679059 20.168942 0.924981 -3.443766 -2.537410 -6.108988 -0.000000 0.000000 0.000000
-23.229612 99.462382 75.668838 63.086705 -8.164773 5.974077 0.180116 10.891287 5.111722 -0.040824 4.842332 2.257038 -0.040824 4.842332 2.257038 -0.048522 3.631657 1.692093 -9.340255 24.458316 2.503852 -17.353671 10.056692 6.729312 5.610520 1.519423 5.197052 9.556059 -22.234707 60.186932 2.457685 30.295207 -8.027736 13.762532 31.144365 -38.977532 -2.227217 -2.019182 -11.392834 -1.934460 5.246505 -76.633228 -26.897742 26.595643 -3.808304 1.511757 15.545342 9.642338 -12.095071 9.763856 -4.848382 -5.076325 0.620091 0.310791 -13.287768 -4.116361 -3.015747 0.000000 0.000000 0.000000 21.486870 3.650523 8.082672 -2.676450 19.254029 0.835950 -3.535369 -2.963267 -6.138560 0.000000 0.000000 0.000000
-23.293051 99.496021 75.358054 63.771026 -7.891021 6.006144 0.124314 10.839325 5.072921 -0.064017 4.818616 2.241302 -0.064018 4.818612 2.241301 -0.065696 3.613780 1.680488 -9.372223 24.383226 2.591924 -17.437895 9.936648 6.903283 5.494719 1.439010 5.164478 8.659481 -22.144096 60.521724 3.234684 30.055962 -8.104460 13.716977 31.635057 -40.045583 -2.343712 -2.004938 -11.243087 -2.164231 5.092547 -76.644050 -27.278518 26.579934 -3.777428 1.544925 15.440708 9.667083 -12.239092 9.424727 -5.037175 -5.500316 0.508045 0.458244 -13.343328 -3.932638 -3.038110 0.000000 0.000000 -0.000000 21.507144 3.771872 7.955545 -2.579256 18.356934 0.739495 -3.999960 -3.556244 -6.126022 0.000000 0.000000 0.000000
-23.363026 99.521477 75.041603 64.518302 -7.633472 6.014739 0.070222 10.793728 5.038538 -0.086638 4.797762 2.227455 -0.086639 4.797757 2.227454 -0.082467 3.598056 1.670294 -9.412163 24.298399 2.697383 -17.541695 9.803001 7.111483 5.358449 1.333076 5.121422 7.599958 -21.985079 60.947233 4.255721 29.586739 -8.002506 13.812550 31.901735 -41.533488 -2.469234 -1.993053 -11.090562 -2.421971 4.930820 -76.643459 -27.638242 26.572954 -3.729996 1.577600 15.299582 9.693097 -12.397681 9.111456 -5.212184 -5.924730 0.390625 0.612943 -13.444931 -3.754637 -3.045302 0.000000 0.000000 0.000000 21.477569 3.896145 7.885626 -2.407683 17.474914 0.636461 -4.640265 -4.255481 -6.091866 -0.000000 -0.000000 -0.000000
-23.438290 99.539814 74.720377 65.306165 -7.399744 6.002759 0.019807 10.751712 4.999383 -0.107564 4.778553 2.211393 -0.107564 4.778553 2.211393 -0.097954 3.583581 1.658425 -9.457959 24.216933 2.819914 -17.660000 9.679274 7.351216 5.216747 1.225607 5.090802 6.602976 -21.716656 61.364696 5.358751 29.065211 -7.890510 13.876721 32.147669 -43.174704 -2.583804 -1.981927 -10.943736 -2.668234 4.759547 -76.621720 -27.959575 26.583263 -3.677766 1.604100 15.075388 9.806406 -12.568766 8.830202 -5.368273 -6.335360 0.267720 0.755350 -13.591075 -3.578192 -3.032346 -0.000000 0.000000 -0.000000 21.535010 3.986639 7.876365 -2.202617 16.681060 0.532805 -4.941441 -4.932853 -6.008097 0.000000 0.000000 0.000000
-23.517715 99.549675 74.396260 66.131026 -7.190917 5.970035 -0.025913 10.711083 4.952331 -0.126252 4.760015 2.191713 -0.126249 4.760016 2.191712 -0.111738 3.569615 1.643822 -9.510401 24.144729 2.965205 -17.795111 9.577692 7.631913 5.070242 1.123314 5.082229 5.743914 -21.300690 61.744927 6.536298 28.484047 -7.843372 13.799465 32.446322 -45.058758 -2.679828 -1.970584 -10.805449 -2.884127 4.579038 -76.568523 -28.248774 26.644036 -3.636067 1.598925 14.704717 10.036290 -12.749072 8.586290 -5.501557 -6.728968 0.134307 0.879437 -13.786262 -3.403602 -2.993327 0.000000 -0.000000 -0.000000 21.725031 4.047252 7.929953 -2.022005 15.958649 0.422617 -4.681539 -5.630551 -5.938921 0.000000 0.000000 0.000000
-23.602429 99.552417 74.067368 66.996343 -7.004949 5.916203 -0.068069 10.674413 4.900392 -0.143307 4.743279 2.169771 -0.143303 4.743277 2.169768 -0.124290 3.557002 1.627508 -9.568609 24.075702 3.127699 -17.944705 9.486496 7.944222 4.918245 1.019631 5.085992 4.952678 -20.777660 62.113728 7.790647 27.850997 -7.799013 13.680496 32.723465 -47.103706 -2.765060 -1.960178 -10.673104 -3.089221 4.389006 -76.495452 -28.500181 26.721985 -3.590667 1.583913 14.251594 10.353135 -12.942007 8.374085 -5.615324 -7.108758 -0.004999 0.990997 -14.025880 -3.230386 -2.934625 -0.000000 -0.000000 0.000000 22.003321 4.071900 8.041995 -1.807935 15.325608 0.309669 -4.082679 -6.315671 -5.833741 0.000000 0.000000 0.000000
-23.694568 99.553167 73.728948 67.890445 -6.844807 5.843371 -0.107940 10.646205 4.843641 -0.159345 4.730344 2.145630 -0.159345 4.730344 2.145630 -0.136084 3.547251 1.609543 -9.628029 24.005126 3.290225 -18.096758 9.393197 8.257237 4.774043 0.918301 5.095964 4.234141 -20.229803 62.455808 8.978932 27.367412 -7.718183 13.620506 32.959040 -48.810259 -2.842688 -1.952256 -10.547239 -3.301945 4.187005 -76.425988 -28.678602 26.726085 -3.508298 1.622616 13.860434 10.753573 -13.155354 8.183137 -5.714990 -7.469974 -0.135912 1.088236 -14.294700 -3.053167 -2.869652 0.000000 -0.000000 0.000000 22.371759 4.009400 8.203015 -1.428392 14.906997 0.217144 -3.299175 -6.762885 -5.486635 0.000000 -0.000000 0.000000
-23.796946 99.553883 73.380910 68.810536 -6.713277 5.748850 -0.146003 10.632338 4.783041 -0.174657 4.723810 2.119717 -0.174664 4.723810 2.119721 -0.147347 3.542304 1.590244 -9.687683 23.928728 3.449349 -18.249156 9.289128 8.565219 4.641839 0.817375 5.107755 3.575804 -19.676246 62.783183 10.082889 27.103615 -7.603527 13.647308 33.159012 -50.010730 -2.912520 -1.952900 -10.431011 -3.534864 3.970595 -76.369305 -28.764034 26.594757 -3.366140 1.736027 13.580223 11.255769 -13.381270 8.010686 -5.793511 -7.816724 -0.250132 1.164690 -14.593114 -2.870776 -2.804055 0.000000 -0.000000 -0.000000 22.856484 3.840325 8.412188 -0.801720 14.753200 0.172212 -2.333979 -6.925262 -4.772242 0.000000 -0.000000 -0.000000
